<?xml version="1.0" encoding="UTF-8" standalone="no"?>
<svg
   xmlns:dc="http://purl.org/dc/elements/1.1/"
   xmlns:cc="http://creativecommons.org/ns#"
   xmlns:rdf="http://www.w3.org/1999/02/22-rdf-syntax-ns#"
   xmlns:svg="http://www.w3.org/2000/svg"
   xmlns="http://www.w3.org/2000/svg"
   xmlns:sodipodi="http://sodipodi.sourceforge.net/DTD/sodipodi-0.dtd"
   xmlns:inkscape="http://www.inkscape.org/namespaces/inkscape"
   version="1.1"
   width="76.0106"
   height="76.0106"
   viewBox="0 0 76.01 76.01"
   enable-background="new 0 0 76.01 76.01"
   xml:space="preserve"
   id="svg2"
   inkscape:version="0.48.4 r9939"
   sodipodi:docname="appbar.sound.2.svg"><metadata
     id="metadata10"><rdf:RDF><cc:Work
         rdf:about=""><dc:format>image/svg+xml</dc:format><dc:type
           rdf:resource="http://purl.org/dc/dcmitype/StillImage" /><dc:title></dc:title></cc:Work></rdf:RDF></metadata><defs
     id="defs8" /><sodipodi:namedview
     pagecolor="#ffffff"
     bordercolor="#666666"
     borderopacity="1"
     objecttolerance="10"
     gridtolerance="10"
     guidetolerance="10"
     inkscape:pageopacity="0"
     inkscape:pageshadow="2"
     inkscape:window-width="640"
     inkscape:window-height="480"
     id="namedview6"
     showgrid="false"
     inkscape:zoom="3.1048302"
     inkscape:cx="38.005299"
     inkscape:cy="38.005299"
     inkscape:window-x="49"
     inkscape:window-y="24"
     inkscape:window-maximized="0"
     inkscape:current-layer="svg2" /><path
     fill="#000000"
     fill-opacity="1"
     stroke-width="0.2"
     stroke-linejoin="round"
     d="M 20.5862,33.2547L 26.9204,33.2546L 36.4217,25.3369L 36.4217,52.2573L 26.9204,42.756L 20.5862,42.756C 18.8371,42.756 17.4191,41.338 17.4191,39.5889L 17.4191,36.4218C 17.4191,34.6726 18.8371,33.2547 20.5862,33.2547 Z M 50.6737,38.0053C 50.6737,41.4696 49.0845,44.5627 46.5954,46.5954L 44.3398,44.3399C 46.2628,42.8953 47.5066,40.5956 47.5066,38.0053C 47.5066,35.4151 46.2628,33.1153 44.3398,31.6708L 46.5954,29.4152C 49.0845,31.4479 50.6737,34.541 50.6737,38.0053 Z M 44.3395,38.0053C 44.3395,40.1167 42.9621,41.9064 41.0568,42.5248L 39.5889,39.5889C 40.4634,39.5889 41.1724,38.8799 41.1724,38.0053C 41.1724,37.1307 40.4634,36.4218 39.5889,36.4218L 41.0568,33.4858C 42.9621,34.1042 44.3395,35.8939 44.3395,38.0053 Z "
     id="path4"
     style="fill:#ffffff" /></svg>