<?xml version="1.0" encoding="UTF-8" standalone="no"?>
<svg
   xmlns:dc="http://purl.org/dc/elements/1.1/"
   xmlns:cc="http://creativecommons.org/ns#"
   xmlns:rdf="http://www.w3.org/1999/02/22-rdf-syntax-ns#"
   xmlns:svg="http://www.w3.org/2000/svg"
   xmlns="http://www.w3.org/2000/svg"
   xmlns:sodipodi="http://sodipodi.sourceforge.net/DTD/sodipodi-0.dtd"
   xmlns:inkscape="http://www.inkscape.org/namespaces/inkscape"
   version="1.1"
   width="76"
   height="76"
   viewBox="0 0 76.00 76.00"
   enable-background="new 0 0 76.00 76.00"
   xml:space="preserve"
   id="svg2"
   inkscape:version="0.48.4 r9939"
   sodipodi:docname="appbar.cog.svg"><metadata
     id="metadata10"><rdf:RDF><cc:Work
         rdf:about=""><dc:format>image/svg+xml</dc:format><dc:type
           rdf:resource="http://purl.org/dc/dcmitype/StillImage" /><dc:title></dc:title></cc:Work></rdf:RDF></metadata><defs
     id="defs8" /><sodipodi:namedview
     pagecolor="#ffffff"
     bordercolor="#666666"
     borderopacity="1"
     objecttolerance="10"
     gridtolerance="10"
     guidetolerance="10"
     inkscape:pageopacity="0"
     inkscape:pageshadow="2"
     inkscape:window-width="753"
     inkscape:window-height="480"
     id="namedview6"
     showgrid="false"
     inkscape:zoom="3.1052632"
     inkscape:cx="38"
     inkscape:cy="38"
     inkscape:window-x="55"
     inkscape:window-y="24"
     inkscape:window-maximized="0"
     inkscape:current-layer="svg2" /><path
     fill="#000000"
     fill-opacity="1"
     stroke-width="0.2"
     stroke-linejoin="round"
     d="M 27.5314,21.8628L 33.0126,19.4224L 34.7616,23.3507C 36.6693,22.9269 38.6044,22.8903 40.4668,23.2026L 42.0083,19.1868L 47.6098,21.337L 46.0683,25.3528C 47.6612,26.3669 49.0747,27.6889 50.2088,29.2803L 54.1371,27.5313L 56.5776,33.0126L 52.6493,34.7616C 53.0731,36.6693 53.1097,38.6043 52.7974,40.4668L 56.8131,42.0083L 54.6629,47.6097L 50.6472,46.0683C 49.6331,47.6613 48.3111,49.0748 46.7197,50.2089L 48.4686,54.1372L 42.9874,56.5776L 41.2384,52.6493C 39.3307,53.0731 37.3957,53.1097 35.5333,52.7974L 33.9918,56.8131L 28.3903,54.6629L 29.9318,50.6472C 28.3388,49.6331 26.9252,48.3111 25.7911,46.7196L 21.8628,48.4686L 19.4224,42.9873L 23.3507,41.2383C 22.9269,39.3307 22.8903,37.3957 23.2026,35.5332L 19.1869,33.9918L 21.3371,28.3903L 25.3528,29.9318C 26.3669,28.3388 27.6889,26.9252 29.2804,25.7911L 27.5314,21.8628 Z M 34.3394,29.7781C 29.7985,31.7998 27.7564,37.1198 29.7781,41.6606C 31.7998,46.2015 37.1198,48.2436 41.6606,46.2219C 46.2015,44.2002 48.2436,38.8802 46.2219,34.3394C 44.2002,29.7985 38.8802,27.7564 34.3394,29.7781 Z "
     id="path4"
     style="fill:#ffffff;fill-opacity:1" /></svg>