<?xml version="1.0" encoding="UTF-8" standalone="no"?>
<svg
   xmlns:dc="http://purl.org/dc/elements/1.1/"
   xmlns:cc="http://creativecommons.org/ns#"
   xmlns:rdf="http://www.w3.org/1999/02/22-rdf-syntax-ns#"
   xmlns:svg="http://www.w3.org/2000/svg"
   xmlns="http://www.w3.org/2000/svg"
   xmlns:sodipodi="http://sodipodi.sourceforge.net/DTD/sodipodi-0.dtd"
   xmlns:inkscape="http://www.inkscape.org/namespaces/inkscape"
   version="1.1"
   width="76"
   height="76"
   viewBox="0 0 76.00 76.00"
   enable-background="new 0 0 76.00 76.00"
   xml:space="preserve"
   id="svg2"
   inkscape:version="0.48.4 r9939"
   sodipodi:docname="appbar.arrow.collapsed.svg"><metadata
     id="metadata10"><rdf:RDF><cc:Work
         rdf:about=""><dc:format>image/svg+xml</dc:format><dc:type
           rdf:resource="http://purl.org/dc/dcmitype/StillImage" /><dc:title></dc:title></cc:Work></rdf:RDF></metadata><defs
     id="defs8" /><sodipodi:namedview
     pagecolor="#ffffff"
     bordercolor="#666666"
     borderopacity="1"
     objecttolerance="10"
     gridtolerance="10"
     guidetolerance="10"
     inkscape:pageopacity="0"
     inkscape:pageshadow="2"
     inkscape:window-width="640"
     inkscape:window-height="480"
     id="namedview6"
     showgrid="false"
     inkscape:zoom="3.1052632"
     inkscape:cx="38"
     inkscape:cy="38"
     inkscape:window-x="65"
     inkscape:window-y="34"
     inkscape:window-maximized="0"
     inkscape:current-layer="svg2" /><path
     fill="#000000"
     fill-opacity="1"
     stroke-width="0.2"
     stroke-linejoin="round"
     d="M 54.2499,34L 42,34L 42,21.7501L 45.9999,17.7501L 45.9999,26.7501L 53.9999,18.7501L 57.2499,22.0001L 49.2499,30.0001L 58.2499,30.0001L 54.2499,34 Z M 34,21.7501L 34,34L 21.75,34L 17.75,30.0001L 26.75,30.0001L 18.75,22.0001L 22,18.7501L 30,26.7501L 30,17.7501L 34,21.7501 Z M 21.75,42L 34,42L 34,54.25L 30,58.25L 30,49.25L 22,57.25L 18.75,54L 26.75,46L 17.75,46L 21.75,42 Z M 42,54.25L 42,42L 54.2499,42L 58.2499,46L 49.2499,46.0001L 57.2499,54L 53.9999,57.25L 45.9999,49.25L 45.9999,58.25L 42,54.25 Z "
     id="path4"
     style="fill:#ffffff" /></svg>