<?xml version="1.0" encoding="UTF-8" standalone="no"?>
<svg
   xmlns:dc="http://purl.org/dc/elements/1.1/"
   xmlns:cc="http://creativecommons.org/ns#"
   xmlns:rdf="http://www.w3.org/1999/02/22-rdf-syntax-ns#"
   xmlns:svg="http://www.w3.org/2000/svg"
   xmlns="http://www.w3.org/2000/svg"
   xmlns:sodipodi="http://sodipodi.sourceforge.net/DTD/sodipodi-0.dtd"
   xmlns:inkscape="http://www.inkscape.org/namespaces/inkscape"
   version="1.1"
   width="76"
   height="76"
   viewBox="0 0 76.00 76.00"
   enable-background="new 0 0 76.00 76.00"
   xml:space="preserve"
   id="svg2987"
   inkscape:version="0.48.4 r9939"
   sodipodi:docname="appbar.arrow.expand.svg"><metadata
     id="metadata2995"><rdf:RDF><cc:Work
         rdf:about=""><dc:format>image/svg+xml</dc:format><dc:type
           rdf:resource="http://purl.org/dc/dcmitype/StillImage" /></cc:Work></rdf:RDF></metadata><defs
     id="defs2993" /><sodipodi:namedview
     pagecolor="#ffffff"
     bordercolor="#666666"
     borderopacity="1"
     objecttolerance="10"
     gridtolerance="10"
     guidetolerance="10"
     inkscape:pageopacity="0"
     inkscape:pageshadow="2"
     inkscape:window-width="1865"
     inkscape:window-height="1056"
     id="namedview2991"
     showgrid="false"
     inkscape:zoom="3.1052632"
     inkscape:cx="38"
     inkscape:cy="38"
     inkscape:window-x="55"
     inkscape:window-y="24"
     inkscape:window-maximized="1"
     inkscape:current-layer="svg2987" /><path
     fill="#000000"
     fill-opacity="1"
     stroke-width="0.2"
     stroke-linejoin="round"
     d="M 30.25,58L 18,58L 18,45.75L 22,41.75L 22,50.75L 30,42.75L 33.25,46L 25.25,54L 34.25,54L 30.25,58 Z M 58,45.75L 58,58L 45.75,58L 41.75,54L 50.75,54L 42.75,46L 46,42.75L 54,50.75L 54,41.75L 58,45.75 Z M 45.75,18L 58,18L 58,30.25L 54,34.25L 54,25.25L 46,33.25L 42.75,30L 50.75,22L 41.75,22L 45.75,18 Z M 18,30.25L 18,18L 30.25,18L 34.25,22L 25.25,22L 33.25,30L 30,33.25L 22,25.25L 22,34.25L 18,30.25 Z "
     id="path2989"
     style="fill:#ffffff" /></svg>