<?xml version="1.0" encoding="UTF-8" standalone="no"?>
<svg
   xmlns:dc="http://purl.org/dc/elements/1.1/"
   xmlns:cc="http://creativecommons.org/ns#"
   xmlns:rdf="http://www.w3.org/1999/02/22-rdf-syntax-ns#"
   xmlns:svg="http://www.w3.org/2000/svg"
   xmlns="http://www.w3.org/2000/svg"
   xmlns:sodipodi="http://sodipodi.sourceforge.net/DTD/sodipodi-0.dtd"
   xmlns:inkscape="http://www.inkscape.org/namespaces/inkscape"
   version="1.1"
   width="76.0106"
   height="76.0106"
   viewBox="0 0 76.01 76.01"
   enable-background="new 0 0 76.01 76.01"
   xml:space="preserve"
   id="svg2"
   inkscape:version="0.48.4 r9939"
   sodipodi:docname="m.camera.svg"><metadata
     id="metadata10"><rdf:RDF><cc:Work
         rdf:about=""><dc:format>image/svg+xml</dc:format><dc:type
           rdf:resource="http://purl.org/dc/dcmitype/StillImage" /><dc:title /></cc:Work></rdf:RDF></metadata><defs
     id="defs8" /><sodipodi:namedview
     pagecolor="#ffffff"
     bordercolor="#666666"
     borderopacity="1"
     objecttolerance="10"
     gridtolerance="10"
     guidetolerance="10"
     inkscape:pageopacity="0"
     inkscape:pageshadow="2"
     inkscape:window-width="1865"
     inkscape:window-height="1056"
     id="namedview6"
     showgrid="false"
     inkscape:zoom="8.7817861"
     inkscape:cx="73.993975"
     inkscape:cy="41.95241"
     inkscape:window-x="55"
     inkscape:window-y="24"
     inkscape:window-maximized="1"
     inkscape:current-layer="g3124" /><g
     id="layer4"
     inkscape:label="Layer"
     transform="matrix(0.12513423,0,0,0.12513423,-6.8475565,-18.773008)"><g
       id="g3124"
       transform="translate(532.98317,178.75731)"><path
         inkscape:connector-curvature="0"
         id="path3033"
         d="M -338.57143,430.93361 z"
         style="fill:#ff0000;stroke:#000000;stroke-width:1px;stroke-linecap:butt;stroke-linejoin:miter;stroke-opacity:1" /><path
         style="fill:#000000;stroke:#000000;stroke-width:0.3758865px;stroke-linecap:butt;stroke-linejoin:miter;stroke-opacity:1"
         d="m -305.7145,294.13395 -0.57782,103.79842 c 0,0 0.57782,21.95736 28.89083,21.95736 28.313,0 189.5238,0.49903 189.5238,0.49903 0,0 27.73519,-1.99612 27.73519,-22.45639 0,-20.46026 -0.57782,-105.29551 -0.57782,-105.29551 0,0 2.88909,-24.45252 -26.00173,-23.45446 -28.89083,0.99806 -190.10163,0 -190.10163,0 0,0 -29.46864,-1.49709 -28.89082,24.95155 z"
         id="path3018-3"
         inkscape:connector-curvature="0" /><path
         style="fill:#000000"
         d="m -251.7799,179.18767 c -30.96874,0 -55.91608,23.08801 -55.91608,51.49583 0,28.40782 24.94734,51.49584 55.91608,51.49584 30.96874,0 56.13709,-23.08802 56.13709,-51.49584 0,-28.40782 -25.16835,-51.49583 -56.13709,-51.49583 z m 17.23895,17.01793 c 7.33162,0 13.26073,5.92911 13.26073,13.26073 0,7.33162 -5.92911,13.26073 -13.26073,13.26073 -7.33163,0 -13.26073,-5.92911 -13.26073,-13.26073 0,-7.33162 5.9291,-13.26073 13.26073,-13.26073 z m -41.55029,1.10506 c 7.33162,0 13.26073,5.92911 13.26073,13.26073 0,7.33162 -5.92911,13.26073 -13.26073,13.26073 -7.33162,0 -13.26073,-5.92911 -13.26073,-13.26073 0,-7.33162 5.92911,-13.26073 13.26073,-13.26073 z m 2.43113,37.35106 c 7.33162,0 13.26073,5.92911 13.26073,13.26073 0,7.33162 -5.92911,13.26073 -13.26073,13.26073 -7.33162,0 -13.26073,-5.92911 -13.26073,-13.26073 0,-7.33162 5.92911,-13.26073 13.26073,-13.26073 z m 39.11916,0 c 7.33162,0 13.26073,5.92911 13.26073,13.26073 0,7.33162 -5.92911,13.26073 -13.26073,13.26073 -7.33163,0 -13.26073,-5.92911 -13.26073,-13.26073 0,-7.33162 5.9291,-13.26073 13.26073,-13.26073 z"
         id="path3025-8"
         inkscape:connector-curvature="0" /><path
         style="fill:#000000"
         d="m -119.56612,139.452 c -44.00556,0 -79.49737,34.00956 -79.49737,75.98367 0,41.9741 35.49181,75.98367 79.49737,75.98367 44.00556,0 79.716973,-34.00957 79.716973,-75.98367 0,-41.97411 -35.711413,-75.98367 -79.716973,-75.98367 z m -28.10957,23.71744 c 12.48853,0 22.61942,10.13089 22.61942,22.61942 0,12.48852 -10.13089,22.61942 -22.61942,22.61942 -12.48852,0 -22.61942,-10.1309 -22.61942,-22.61942 0,-12.48853 10.1309,-22.61942 22.61942,-22.61942 z m 57.097559,0.65882 c 12.488525,0 22.619417,10.13089 22.619417,22.61942 0,12.48852 -10.130892,22.61941 -22.619417,22.61941 -12.488529,0 -22.619419,-10.13089 -22.619419,-22.61941 0,-12.48853 10.13089,-22.61942 22.619419,-22.61942 z m -57.756379,51.60741 c 12.48853,0 22.61942,10.13089 22.61942,22.61942 0,12.48852 -10.13089,22.61941 -22.61942,22.61941 -12.48852,0 -22.61941,-10.13089 -22.61941,-22.61941 0,-12.48853 10.13089,-22.61942 22.61941,-22.61942 z m 57.097561,0.65882 c 12.488525,0 22.619417,10.13089 22.619417,22.61941 0,12.48853 -10.130892,22.61942 -22.619417,22.61942 -12.488521,0 -22.619421,-10.13089 -22.619421,-22.61942 0,-12.48852 10.1309,-22.61941 22.619421,-22.61941 z"
         id="path3027-9"
         inkscape:connector-curvature="0" /><path
         inkscape:connector-curvature="0"
         id="path3031-5"
         d="m -61.377981,322.6163 49.79525,-44.3676 1.05947,123.24329 -55.09261,-34.50812 z"
         style="fill:#000000;stroke:#000000;stroke-width:0.71543419px;stroke-linecap:butt;stroke-linejoin:miter;stroke-opacity:1" /></g></g></svg>