<?xml version="1.0" encoding="UTF-8" standalone="no"?>
<svg
   xmlns:dc="http://purl.org/dc/elements/1.1/"
   xmlns:cc="http://creativecommons.org/ns#"
   xmlns:rdf="http://www.w3.org/1999/02/22-rdf-syntax-ns#"
   xmlns:svg="http://www.w3.org/2000/svg"
   xmlns="http://www.w3.org/2000/svg"
   xmlns:sodipodi="http://sodipodi.sourceforge.net/DTD/sodipodi-0.dtd"
   xmlns:inkscape="http://www.inkscape.org/namespaces/inkscape"
   version="1.1"
   width="76.0106"
   height="76.0106"
   viewBox="0 0 76.01 76.01"
   enable-background="new 0 0 76.01 76.01"
   xml:space="preserve"
   id="svg2"
   inkscape:version="0.48.4 r9939"
   sodipodi:docname="m.camera_3.svg"><metadata
     id="metadata10"><rdf:RDF><cc:Work
         rdf:about=""><dc:format>image/svg+xml</dc:format><dc:type
           rdf:resource="http://purl.org/dc/dcmitype/StillImage" /><dc:title /></cc:Work></rdf:RDF></metadata><defs
     id="defs8" /><sodipodi:namedview
     pagecolor="#ffffff"
     bordercolor="#666666"
     borderopacity="1"
     objecttolerance="10"
     gridtolerance="10"
     guidetolerance="10"
     inkscape:pageopacity="0"
     inkscape:pageshadow="2"
     inkscape:window-width="1871"
     inkscape:window-height="1056"
     id="namedview6"
     showgrid="false"
     inkscape:zoom="8"
     inkscape:cx="72.705067"
     inkscape:cy="46.513001"
     inkscape:window-x="49"
     inkscape:window-y="24"
     inkscape:window-maximized="1"
     inkscape:current-layer="g2997" /><g
     id="layer4"
     inkscape:label="Layer"
     transform="matrix(0.12513423,0,0,0.12513423,-6.8475565,-18.773008)"><g
       id="g3124"
       transform="translate(532.98317,178.75731)"><g
         id="g3756"><g
           id="g2997"><path
             inkscape:connector-curvature="0"
             id="path3033"
             d="M -338.57143,430.93361 z"
             style="fill:#6699cc;stroke:#000000;stroke-width:1px;stroke-linecap:butt;stroke-linejoin:miter;stroke-opacity:1;fill-opacity:1" /><g
             id="g3018"
             transform="translate(-54.722054,-38.977238)"
             style="fill:#ffffff;fill-opacity:1"><path
               inkscape:connector-curvature="0"
               id="path3004"
               d="m -271.74345,225.64885 c 0,0 -34.54578,-1.72533 -33.87018,29.19844 l -0.58397,121.4655 c 0,0 0.4746,25.40264 33.5782,25.40264 33.10358,0 221.616145,0.58397 221.616145,0.58397 0,0 32.410266,-2.06445 32.410266,-25.98661 0,-23.92216 -0.583969,-123.21741 -0.583969,-123.21741 0,0 3.412798,-28.61346 -30.366376,-27.44653 -33.779182,1.16693 -222.200116,0 -222.200116,0 z m 41.1698,36.79003 c 7.27132,0 13.1393,5.86798 13.1393,13.1393 0,7.27131 -5.86798,13.13929 -13.1393,13.13929 -7.27132,0 -13.13929,-5.86798 -13.13929,-13.13929 0,-7.27132 5.86797,-13.1393 13.13929,-13.1393 z"
               style="fill:#ffffff;fill-opacity:1;stroke:none" /><g
               transform="matrix(1.1692009,0,0,1.1692009,61.152405,-84.533465)"
               id="g3006"
               style="fill:#ffffff;fill-opacity:1"><path
                 style="fill:#ffffff;fill-opacity:1;stroke:none"
                 d="m -53.978173,322.6163 c 0.308388,-3.11033 1.10395,-3.43474 2.44497,-4.38969 1.341021,-0.95496 36.377413,-25.78826 49.4737902,-35.18318 3.3842684,-2.42777 4.42974,-3.03021 5.5980286,-2.86435 1.2311016,0.18988 1.067649,3.62776 1.067649,3.62776 L 4.2460797,340.5858 3.8506221,371.16376 3.9546242,401.49199 -54.015815,357.70317 c 0,0 -0.270746,-31.97654 0.03764,-35.08687 z"
                 id="path3008"
                 inkscape:connector-curvature="0"
                 sodipodi:nodetypes="zzsccccccz" /><path
                 sodipodi:nodetypes="zzsccccccz"
                 inkscape:connector-curvature="0"
                 id="path3010"
                 d="m -53.978173,359.02912 c 0.308388,3.11033 1.10395,3.43474 2.44497,4.38969 1.341021,0.95496 36.377413,25.78826 49.4737902,35.18318 3.3842684,2.42777 4.42974,3.03021 5.5980286,2.86435 1.2311016,-0.18988 1.067649,-3.62776 1.067649,-3.62776 L 4.2460797,341.05962 3.8506221,310.48166 3.9546242,280.15343 -52.267706,322.43132 c 0,0 -2.018855,33.48747 -1.710467,36.5978 z"
                 style="fill:#ffffff;fill-opacity:1;stroke:none" /></g></g></g></g></g></g></svg>