<?xml version="1.0" encoding="UTF-8" standalone="no"?>
<svg
   xmlns:dc="http://purl.org/dc/elements/1.1/"
   xmlns:cc="http://creativecommons.org/ns#"
   xmlns:rdf="http://www.w3.org/1999/02/22-rdf-syntax-ns#"
   xmlns:svg="http://www.w3.org/2000/svg"
   xmlns="http://www.w3.org/2000/svg"
   xmlns:sodipodi="http://sodipodi.sourceforge.net/DTD/sodipodi-0.dtd"
   xmlns:inkscape="http://www.inkscape.org/namespaces/inkscape"
   version="1.1"
   width="76.0106"
   height="76.0106"
   viewBox="0 0 76.01 76.01"
   enable-background="new 0 0 76.01 76.01"
   xml:space="preserve"
   id="svg2"
   inkscape:version="0.48.4 r9939"
   sodipodi:docname="xbox.axis.base.svg"><metadata
     id="metadata10"><rdf:RDF><cc:Work
         rdf:about=""><dc:format>image/svg+xml</dc:format><dc:type
           rdf:resource="http://purl.org/dc/dcmitype/StillImage" /><dc:title></dc:title></cc:Work></rdf:RDF></metadata><defs
     id="defs8" /><sodipodi:namedview
     pagecolor="#ffffff"
     bordercolor="#666666"
     borderopacity="1"
     objecttolerance="10"
     gridtolerance="10"
     guidetolerance="10"
     inkscape:pageopacity="0"
     inkscape:pageshadow="2"
     inkscape:window-width="935"
     inkscape:window-height="1028"
     id="namedview6"
     showgrid="false"
     inkscape:zoom="3.1048302"
     inkscape:cx="14.815625"
     inkscape:cy="39.293614"
     inkscape:window-x="984"
     inkscape:window-y="24"
     inkscape:window-maximized="0"
     inkscape:current-layer="svg2" /><g
     transform="matrix(0.99999214,0,0,0.99999214,6.0052506,6.0052517)"
     id="g4032"><path
       transform="matrix(20.450563,0,0,17.732449,15.823286,15.583631)"
       d="m 1.59375,0.92578125 c 0,0.51129485 -0.3593964,0.92578125 -0.80273438,0.92578125 -0.44333795,0 -0.80273437,-0.4144864 -0.80273437,-0.92578125 C -0.01171875,0.41448638 0.34767767,0 0.79101562,0 1.2343536,0 1.59375,0.41448638 1.59375,0.92578125 z"
       sodipodi:ry="0.92578125"
       sodipodi:rx="0.80273438"
       sodipodi:cy="0.92578125"
       sodipodi:cx="0.79101562"
       id="path4022"
       style="fill:#646464;fill-opacity:1;stroke:#4d4d4d;stroke-width:0.05251254;stroke-miterlimit:4;stroke-opacity:1;stroke-dasharray:none"
       sodipodi:type="arc" /><path
       transform="translate(1.7711858,0.61871843)"
       d="m 32.173359,18.480001 c 0,1.073942 -0.870602,1.944544 -1.944544,1.944544 -1.073942,0 -1.944544,-0.870602 -1.944544,-1.944544 0,-1.073941 0.870602,-1.944543 1.944544,-1.944543 1.073942,0 1.944544,0.870602 1.944544,1.944543 z"
       sodipodi:ry="1.9445436"
       sodipodi:rx="1.9445436"
       sodipodi:cy="18.480001"
       sodipodi:cx="30.228815"
       id="path4024"
       style="fill:#4d4d4d;fill-opacity:1;stroke:none"
       sodipodi:type="arc" /><path
       sodipodi:type="arc"
       style="fill:#4d4d4d;fill-opacity:1;stroke:none"
       id="path4026"
       sodipodi:cx="30.228815"
       sodipodi:cy="18.480001"
       sodipodi:rx="1.9445436"
       sodipodi:ry="1.9445436"
       d="m 32.173359,18.480001 c 0,1.073942 -0.870602,1.944544 -1.944544,1.944544 -1.073942,0 -1.944544,-0.870602 -1.944544,-1.944544 0,-1.073941 0.870602,-1.944543 1.944544,-1.944543 1.073942,0 1.944544,0.870602 1.944544,1.944543 z"
       transform="translate(1.7711858,26.870058)" /><path
       sodipodi:type="arc"
       style="fill:#4d4d4d;fill-opacity:1;stroke:none"
       id="path4028"
       sodipodi:cx="30.228815"
       sodipodi:cy="18.480001"
       sodipodi:rx="1.9445436"
       sodipodi:ry="1.9445436"
       d="m 32.173359,18.480001 c 0,1.073942 -0.870602,1.944544 -1.944544,1.944544 -1.073942,0 -1.944544,-0.870602 -1.944544,-1.944544 0,-1.073941 0.870602,-1.944543 1.944544,-1.944543 1.073942,0 1.944544,0.870602 1.944544,1.944543 z"
       transform="matrix(0,-1,1,0,0.39432964,62.453205)" /><path
       transform="matrix(0,-1,1,0,26.645669,62.453205)"
       d="m 32.173359,18.480001 c 0,1.073942 -0.870602,1.944544 -1.944544,1.944544 -1.073942,0 -1.944544,-0.870602 -1.944544,-1.944544 0,-1.073941 0.870602,-1.944543 1.944544,-1.944543 1.073942,0 1.944544,0.870602 1.944544,1.944543 z"
       sodipodi:ry="1.9445436"
       sodipodi:rx="1.9445436"
       sodipodi:cy="18.480001"
       sodipodi:cx="30.228815"
       id="path4030"
       style="fill:#4d4d4d;fill-opacity:1;stroke:none"
       sodipodi:type="arc" /></g></svg>