<?xml version="1.0" encoding="UTF-8" standalone="no"?>
<svg
   xmlns:dc="http://purl.org/dc/elements/1.1/"
   xmlns:cc="http://creativecommons.org/ns#"
   xmlns:rdf="http://www.w3.org/1999/02/22-rdf-syntax-ns#"
   xmlns:svg="http://www.w3.org/2000/svg"
   xmlns="http://www.w3.org/2000/svg"
   xmlns:sodipodi="http://sodipodi.sourceforge.net/DTD/sodipodi-0.dtd"
   xmlns:inkscape="http://www.inkscape.org/namespaces/inkscape"
   version="1.1"
   width="76"
   height="76"
   viewBox="0 0 76.00 76.00"
   enable-background="new 0 0 76.00 76.00"
   xml:space="preserve"
   id="svg2"
   inkscape:version="0.48.4 r9939"
   sodipodi:docname="appbar.camera.svg"><metadata
     id="metadata10"><rdf:RDF><cc:Work
         rdf:about=""><dc:format>image/svg+xml</dc:format><dc:type
           rdf:resource="http://purl.org/dc/dcmitype/StillImage" /><dc:title></dc:title></cc:Work></rdf:RDF></metadata><defs
     id="defs8" /><sodipodi:namedview
     pagecolor="#ffffff"
     bordercolor="#666666"
     borderopacity="1"
     objecttolerance="10"
     gridtolerance="10"
     guidetolerance="10"
     inkscape:pageopacity="0"
     inkscape:pageshadow="2"
     inkscape:window-width="640"
     inkscape:window-height="480"
     id="namedview6"
     showgrid="false"
     inkscape:zoom="3.1052632"
     inkscape:cx="38"
     inkscape:cy="38"
     inkscape:window-x="49"
     inkscape:window-y="24"
     inkscape:window-maximized="0"
     inkscape:current-layer="svg2" /><path
     fill="#000000"
     fill-opacity="1"
     stroke-width="0.2"
     stroke-linejoin="round"
     d="M 30,27C 30,24.3766 32.3767,22 35,22L 41,22C 43.6234,22 46,24.3766 46,27L 50.9999,27.0001C 53.7613,27.0001 55.9999,29.2387 55.9999,32.0001L 55.9999,46.0001C 55.9999,48.7615 53.7613,51.0001 50.9999,51.0001L 25,51.0001C 22.2385,51.0001 20,48.7615 20,46.0001L 20,32.0001C 20,29.2387 22.2385,27.0001 25,27.0001L 30,27 Z M 25.5,30C 24.6716,30 24,30.8954 24,32C 24,33.1046 24.6716,34 25.5,34C 26.3284,34 27,33.1046 27,32C 27,30.8954 26.3284,30 25.5,30 Z M 38,32C 34.134,32 31,35.134 31,39C 31,42.866 34.134,46 38,46C 41.866,46 45,42.866 45,39C 45,35.134 41.866,32 38,32 Z M 38,34.5C 40.4853,34.5 42.5,36.5147 42.5,39C 42.5,41.4853 40.4853,43.5 38,43.5C 35.5147,43.5 33.5,41.4853 33.5,39C 33.5,36.5147 35.5147,34.5 38,34.5 Z "
     id="path4"
     style="fill:#ffffff" /></svg>