<?xml version="1.0" encoding="UTF-8" standalone="no"?>
<!-- Created with Inkscape (http://www.inkscape.org/) -->

<svg
   xmlns:dc="http://purl.org/dc/elements/1.1/"
   xmlns:cc="http://creativecommons.org/ns#"
   xmlns:rdf="http://www.w3.org/1999/02/22-rdf-syntax-ns#"
   xmlns:svg="http://www.w3.org/2000/svg"
   xmlns="http://www.w3.org/2000/svg"
   xmlns:sodipodi="http://sodipodi.sourceforge.net/DTD/sodipodi-0.dtd"
   xmlns:inkscape="http://www.inkscape.org/namespaces/inkscape"
   width="744.09448819"
   height="1052.3622047"
   id="svg2"
   version="1.1"
   inkscape:version="0.48.4 r9939"
   sodipodi:docname="video_camera_icon.svg">
  <defs
     id="defs4" />
  <sodipodi:namedview
     id="base"
     pagecolor="#ffffff"
     bordercolor="#666666"
     borderopacity="1.0"
     inkscape:pageopacity="0.0"
     inkscape:pageshadow="2"
     inkscape:zoom="0.49497475"
     inkscape:cx="194.04147"
     inkscape:cy="697.54954"
     inkscape:document-units="px"
     inkscape:current-layer="layer4"
     showgrid="false"
     showguides="true"
     inkscape:window-width="1366"
     inkscape:window-height="705"
     inkscape:window-x="-8"
     inkscape:window-y="-8"
     inkscape:window-maximized="1">
    <inkscape:grid
       type="xygrid"
       id="grid3058" />
  </sodipodi:namedview>
  <metadata
     id="metadata7">
    <rdf:RDF>
      <cc:Work
         rdf:about="">
        <dc:format>image/svg+xml</dc:format>
        <dc:type
           rdf:resource="http://purl.org/dc/dcmitype/StillImage" />
        <dc:title></dc:title>
      </cc:Work>
    </rdf:RDF>
  </metadata>
  <g
     inkscape:groupmode="layer"
     id="layer3"
     inkscape:label="Camer">
    <path
       style="fill:#000000;stroke:#000000;stroke-width:0.3758865px;stroke-linecap:butt;stroke-linejoin:miter;stroke-opacity:1"
       d="m 232.09232,449.41042 -0.57782,103.79842 c 0,0 0.57782,21.95736 28.89083,21.95736 28.313,0 189.5238,0.49903 189.5238,0.49903 0,0 27.73519,-1.99612 27.73519,-22.45639 0,-20.46026 -0.57782,-105.29551 -0.57782,-105.29551 0,0 2.88909,-24.45252 -26.00173,-23.45446 -28.89083,0.99806 -190.10163,0 -190.10163,0 0,0 -29.46864,-1.49709 -28.89082,24.95155 z"
       id="path3018"
       inkscape:connector-curvature="0" />
  </g>
  <g
     inkscape:groupmode="layer"
     id="layer4"
     inkscape:label="Layer">
    <path
       sodipodi:type="arc"
       style="fill:#000000"
       id="path3025"
       sodipodi:cx="300.71429"
       sodipodi:cy="271.64789"
       sodipodi:rx="67.85714"
       sodipodi:ry="66.428574"
       d="m 368.57143,271.64789 a 67.85714,66.428574 0 1 1 -135.71428,0 67.85714,66.428574 0 1 1 135.71428,0 z"
       transform="matrix(0.93372557,0,0,0.874932,12.563793,141.57435)" />
    <path
       transform="matrix(1.3352889,0,0,1.3010373,27.71791,6.8038896)"
       d="m 368.57143,271.64789 a 67.85714,66.428574 0 1 1 -135.71428,0 67.85714,66.428574 0 1 1 135.71428,0 z"
       sodipodi:ry="66.428574"
       sodipodi:rx="67.85714"
       sodipodi:cy="271.64789"
       sodipodi:cx="300.71429"
       id="path3027"
       style="fill:#000000"
       sodipodi:type="arc" />
    <path
       style="fill:#000000;stroke:#000000;stroke-width:0.71543425px;stroke-linecap:butt;stroke-linejoin:miter;stroke-opacity:1"
       d="m 476.42886,477.89277 49.79525,-44.36759 1.05947,123.24329 -55.09262,-34.50812 z"
       id="path3031"
       inkscape:connector-curvature="0" />
    <path
       style="fill:#ff0000;stroke:#000000;stroke-width:1px;stroke-linecap:butt;stroke-linejoin:miter;stroke-opacity:1"
       d="M -338.57143,430.93361 z"
       id="path3033"
       inkscape:connector-curvature="0" />
  </g>
  <g
     inkscape:groupmode="layer"
     id="layer5"
     inkscape:label="Layer#1">
    <path
       sodipodi:type="arc"
       style="fill:#ffffff"
       id="path3048"
       sodipodi:cx="402.85715"
       sodipodi:cy="346.64789"
       sodipodi:rx="25.714285"
       sodipodi:ry="25.714285"
       d="m 428.57143,346.64789 a 25.714285,25.714285 0 1 1 -51.42857,0 25.714285,25.714285 0 1 1 51.42857,0 z"
       transform="translate(-5.7142857,-19.999999)" />
    <path
       d="m 428.57143,346.64789 a 25.714285,25.714285 0 1 1 -51.42857,0 25.714285,25.714285 0 1 1 51.42857,0 z"
       sodipodi:ry="25.714285"
       sodipodi:rx="25.714285"
       sodipodi:cy="346.64789"
       sodipodi:cx="402.85715"
       id="path3050"
       style="fill:#ffffff"
       sodipodi:type="arc"
       transform="translate(58.571429,40)" />
    <path
       sodipodi:type="arc"
       style="fill:#ffffff"
       id="path3052"
       sodipodi:cx="402.85715"
       sodipodi:cy="346.64789"
       sodipodi:rx="25.714285"
       sodipodi:ry="25.714285"
       d="m 428.57143,346.64789 a 25.714285,25.714285 0 1 1 -51.42857,0 25.714285,25.714285 0 1 1 51.42857,0 z"
       transform="translate(-6.4285714,39.285714)" />
    <path
       d="m 428.57143,346.64789 a 25.714285,25.714285 0 1 1 -51.42857,0 25.714285,25.714285 0 1 1 51.42857,0 z"
       sodipodi:ry="25.714285"
       sodipodi:rx="25.714285"
       sodipodi:cy="346.64789"
       sodipodi:cx="402.85715"
       id="path3054"
       style="fill:#ffffff"
       sodipodi:type="arc"
       transform="translate(59.285714,-19.285714)" />
    <path
       sodipodi:type="arc"
       style="fill:#ffffff"
       id="path3060"
       sodipodi:cx="265"
       sodipodi:cy="377.36218"
       sodipodi:rx="15"
       sodipodi:ry="15"
       d="m 280,377.36218 a 15,15 0 1 1 -30,0 15,15 0 1 1 30,0 z"
       transform="translate(3.5714286,21.428571)" />
    <path
       d="m 280,377.36218 a 15,15 0 1 1 -30,0 15,15 0 1 1 30,0 z"
       sodipodi:ry="15"
       sodipodi:rx="15"
       sodipodi:cy="377.36218"
       sodipodi:cx="265"
       id="path3062"
       style="fill:#ffffff"
       sodipodi:type="arc"
       transform="translate(47.857143,21.428572)" />
    <path
       d="m 280,377.36218 a 15,15 0 1 1 -30,0 15,15 0 1 1 30,0 z"
       sodipodi:ry="15"
       sodipodi:rx="15"
       sodipodi:cy="377.36218"
       sodipodi:cx="265"
       id="path3066"
       style="fill:#ffffff"
       sodipodi:type="arc"
       transform="translate(0.71428572,-20.714286)" />
    <path
       sodipodi:type="arc"
       style="fill:#ffffff"
       id="path3068"
       sodipodi:cx="265"
       sodipodi:cy="377.36218"
       sodipodi:rx="15"
       sodipodi:ry="15"
       d="m 280,377.36218 a 15,15 0 1 1 -30,0 15,15 0 1 1 30,0 z"
       transform="translate(47.857143,-22.142857)" />
  </g>
</svg>
