<?xml version="1.0" encoding="UTF-8" standalone="no"?>
<svg
   xmlns:dc="http://purl.org/dc/elements/1.1/"
   xmlns:cc="http://creativecommons.org/ns#"
   xmlns:rdf="http://www.w3.org/1999/02/22-rdf-syntax-ns#"
   xmlns:svg="http://www.w3.org/2000/svg"
   xmlns="http://www.w3.org/2000/svg"
   xmlns:sodipodi="http://sodipodi.sourceforge.net/DTD/sodipodi-0.dtd"
   xmlns:inkscape="http://www.inkscape.org/namespaces/inkscape"
   version="1.1"
   width="76"
   height="76"
   viewBox="0 0 76.00 76.00"
   enable-background="new 0 0 76.00 76.00"
   xml:space="preserve"
   id="svg2"
   inkscape:version="0.48.4 r9939"
   sodipodi:docname="appbar.connect.svg"><metadata
     id="metadata10"><rdf:RDF><cc:Work
         rdf:about=""><dc:format>image/svg+xml</dc:format><dc:type
           rdf:resource="http://purl.org/dc/dcmitype/StillImage" /><dc:title></dc:title></cc:Work></rdf:RDF></metadata><defs
     id="defs8" /><sodipodi:namedview
     pagecolor="#ffffff"
     bordercolor="#666666"
     borderopacity="1"
     objecttolerance="10"
     gridtolerance="10"
     guidetolerance="10"
     inkscape:pageopacity="0"
     inkscape:pageshadow="2"
     inkscape:window-width="753"
     inkscape:window-height="480"
     id="namedview6"
     showgrid="false"
     inkscape:zoom="3.1052632"
     inkscape:cx="38"
     inkscape:cy="38"
     inkscape:window-x="55"
     inkscape:window-y="24"
     inkscape:window-maximized="0"
     inkscape:current-layer="svg2" /><path
     fill="#000000"
     fill-opacity="1"
     stroke-width="0.2"
     stroke-linejoin="round"
     d="M 25.7639,28.0031L 20.0866,22.3258C 19.4683,21.7075 19.4683,20.705 20.0866,20.0866C 20.705,19.4683 21.7075,19.4683 22.3258,20.0867L 28.0031,25.7639C 32.3443,22.5092 38.5302,22.856 42.4783,26.8042L 26.8041,42.4784C 22.856,38.5302 22.5092,32.3443 25.7639,28.0031 Z M 49.1958,33.5217C 53.144,37.4699 53.4908,43.6557 50.2361,47.9969L 55.9133,53.6742C 56.5317,54.2925 56.5317,55.295 55.9133,55.9134C 55.295,56.5317 54.2925,56.5317 53.6742,55.9134L 47.9969,50.2361C 43.6557,53.4908 37.4698,53.1441 33.5216,49.1959L 36.8804,45.8371L 34.0814,43.0381C 33.1539,42.1107 33.1539,40.6069 34.0814,39.6794C 35.0089,38.7519 36.5127,38.7519 37.4402,39.6794L 40.2392,42.4784L 42.4783,40.2392L 39.6794,37.4402C 38.7519,36.5127 38.7519,35.009 39.6794,34.0815C 40.6069,33.154 42.1106,33.154 43.0381,34.0815L 45.8371,36.8804L 49.1958,33.5217 Z "
     id="path4"
     style="fill:#ffffff;fill-opacity:1" /></svg>