<?xml version="1.0" encoding="UTF-8" standalone="no"?>
<svg
   xmlns:dc="http://purl.org/dc/elements/1.1/"
   xmlns:cc="http://creativecommons.org/ns#"
   xmlns:rdf="http://www.w3.org/1999/02/22-rdf-syntax-ns#"
   xmlns:svg="http://www.w3.org/2000/svg"
   xmlns="http://www.w3.org/2000/svg"
   xmlns:sodipodi="http://sodipodi.sourceforge.net/DTD/sodipodi-0.dtd"
   xmlns:inkscape="http://www.inkscape.org/namespaces/inkscape"
   version="1.1"
   width="76.0106"
   height="76.0106"
   viewBox="0 0 76.01 76.01"
   enable-background="new 0 0 76.01 76.01"
   xml:space="preserve"
   id="svg2"
   inkscape:version="0.48.4 r9939"
   sodipodi:docname="appbar.alien.svg"><metadata
     id="metadata10"><rdf:RDF><cc:Work
         rdf:about=""><dc:format>image/svg+xml</dc:format><dc:type
           rdf:resource="http://purl.org/dc/dcmitype/StillImage" /><dc:title></dc:title></cc:Work></rdf:RDF></metadata><defs
     id="defs8" /><sodipodi:namedview
     pagecolor="#ffffff"
     bordercolor="#666666"
     borderopacity="1"
     objecttolerance="10"
     gridtolerance="10"
     guidetolerance="10"
     inkscape:pageopacity="0"
     inkscape:pageshadow="2"
     inkscape:window-width="1865"
     inkscape:window-height="1056"
     id="namedview6"
     showgrid="false"
     inkscape:zoom="6.2096605"
     inkscape:cx="-2.5853726"
     inkscape:cy="46.104453"
     inkscape:window-x="55"
     inkscape:window-y="24"
     inkscape:window-maximized="1"
     inkscape:current-layer="layer4" /><g
     id="layer4"
     inkscape:label="Layer"
     transform="matrix(0.12513423,0,0,0.12513423,-6.8475565,-18.773008)"><g
       id="g3124"
       transform="translate(532.98317,178.75731)"><path
         inkscape:connector-curvature="0"
         id="path3033"
         d="M -338.57143,430.93361 z"
         style="fill:#ff0000;stroke:#000000;stroke-width:1px;stroke-linecap:butt;stroke-linejoin:miter;stroke-opacity:1" /><path
         style="fill:#000000;fill-opacity:1;stroke-width:0.2;stroke-linejoin:round"
         inkscape:connector-curvature="0"
         d="m -267.28646,210.54518 23.97746,0 0,23.97745 23.97745,0 0,23.97745 79.92538,0 0,-23.97745 23.97745,0 0,-23.97745 23.977449,0 0,23.97745 -23.977449,0 0,23.97745 23.977449,0 0,23.97746 23.97826,0 0,31.97047 -23.97826,0 0,71.93236 -23.977449,0 0,23.97825 -47.95491,0 0,-23.97825 47.95491,0 0,-39.96269 -127.88028,0 0,39.96269 -23.97746,0 0,-71.93236 -23.97825,0 0,47.9549 -31.96967,0 0,-47.9549 31.96967,0 0,-31.97047 23.97825,0 0,-23.97746 23.97746,0 0,-23.97745 -23.97746,0 0,-23.97745 z m 199.813449,103.90283 31.96966,0 0,47.9549 -31.96966,0 0,-47.9549 z m -175.835989,71.93236 47.9549,0 0,23.97825 -47.9549,0 0,-23.97825 z m 0,-103.90283 0,31.97047 31.96967,0 0,-31.97047 -31.96967,0 z m 95.91061,0 0,31.97047 31.96967,0 0,-31.97047 -31.96967,0 z"
         id="path4-9" /><path
         style="fill:#000000;stroke:#000000;stroke-width:0.3758865px;stroke-linecap:butt;stroke-linejoin:miter;stroke-opacity:1"
         d="m -305.7145,294.13395 -0.57782,103.79842 c 0,0 0.57782,21.95736 28.89083,21.95736 28.313,0 189.5238,0.49903 189.5238,0.49903 0,0 27.73519,-1.99612 27.73519,-22.45639 0,-20.46026 -0.57782,-105.29551 -0.57782,-105.29551 0,0 2.88909,-24.45252 -26.00173,-23.45446 -28.89083,0.99806 -190.10163,0 -190.10163,0 0,0 -29.46864,-1.49709 -28.89082,24.95155 z"
         id="path3018-3"
         inkscape:connector-curvature="0" /><path
         transform="matrix(0.93372558,0,0,0.87493198,-525.24303,-13.702119)"
         d="m 368.57143,271.64789 c 0,36.68749 -30.38067,66.42857 -67.85714,66.42857 -37.47646,0 -67.85714,-29.74108 -67.85714,-66.42857 0,-36.68749 30.38068,-66.42858 67.85714,-66.42858 37.47647,0 67.85714,29.74109 67.85714,66.42858 z"
         sodipodi:ry="66.428574"
         sodipodi:rx="67.85714"
         sodipodi:cy="271.64789"
         sodipodi:cx="300.71429"
         id="path3025-8"
         style="fill:#000000"
         sodipodi:type="arc" /><path
         sodipodi:type="arc"
         style="fill:#000000"
         id="path3027-9"
         sodipodi:cx="300.71429"
         sodipodi:cy="271.64789"
         sodipodi:rx="67.85714"
         sodipodi:ry="66.428574"
         d="m 368.57143,271.64789 c 0,36.68749 -30.38067,66.42857 -67.85714,66.42857 -37.47646,0 -67.85714,-29.74108 -67.85714,-66.42857 0,-36.68749 30.38068,-66.42858 67.85714,-66.42858 37.47647,0 67.85714,29.74109 67.85714,66.42858 z"
         transform="matrix(1.3352889,0,0,1.3010373,-510.08891,-148.47257)" /><path
         inkscape:connector-curvature="0"
         id="path3031-5"
         d="m -61.377981,322.6163 49.79525,-44.3676 1.05947,123.24329 -55.09261,-34.50812 z"
         style="fill:#000000;stroke:#000000;stroke-width:0.71543419px;stroke-linecap:butt;stroke-linejoin:miter;stroke-opacity:1" /><path
         sodipodi:type="arc"
         style="fill:#ffffff"
         id="path3048-1"
         sodipodi:cx="402.85715"
         sodipodi:cy="346.64789"
         sodipodi:rx="25.714285"
         sodipodi:ry="25.714285"
         d="m 428.57143,346.64789 c 0,14.20161 -11.51268,25.71428 -25.71428,25.71428 -14.20161,0 -25.71429,-11.51267 -25.71429,-25.71428 0,-14.20161 11.51268,-25.71429 25.71429,-25.71429 14.2016,0 25.71428,11.51268 25.71428,25.71429 z"
         transform="translate(-543.52111,-175.27647)" /><path
         d="m 428.57143,346.64789 c 0,14.20161 -11.51268,25.71428 -25.71428,25.71428 -14.20161,0 -25.71429,-11.51267 -25.71429,-25.71428 0,-14.20161 11.51268,-25.71429 25.71429,-25.71429 14.2016,0 25.71428,11.51268 25.71428,25.71429 z"
         sodipodi:ry="25.714285"
         sodipodi:rx="25.714285"
         sodipodi:cy="346.64789"
         sodipodi:cx="402.85715"
         id="path3050-2"
         style="fill:#ffffff"
         sodipodi:type="arc"
         transform="translate(-479.23539,-115.27647)" /><path
         sodipodi:type="arc"
         style="fill:#ffffff"
         id="path3052-9"
         sodipodi:cx="402.85715"
         sodipodi:cy="346.64789"
         sodipodi:rx="25.714285"
         sodipodi:ry="25.714285"
         d="m 428.57143,346.64789 c 0,14.20161 -11.51268,25.71428 -25.71428,25.71428 -14.20161,0 -25.71429,-11.51267 -25.71429,-25.71428 0,-14.20161 11.51268,-25.71429 25.71429,-25.71429 14.2016,0 25.71428,11.51268 25.71428,25.71429 z"
         transform="translate(-544.23539,-115.99076)" /><path
         d="m 428.57143,346.64789 c 0,14.20161 -11.51268,25.71428 -25.71428,25.71428 -14.20161,0 -25.71429,-11.51267 -25.71429,-25.71428 0,-14.20161 11.51268,-25.71429 25.71429,-25.71429 14.2016,0 25.71428,11.51268 25.71428,25.71429 z"
         sodipodi:ry="25.714285"
         sodipodi:rx="25.714285"
         sodipodi:cy="346.64789"
         sodipodi:cx="402.85715"
         id="path3054-7"
         style="fill:#ffffff"
         sodipodi:type="arc"
         transform="translate(-478.52111,-174.56218)" /><path
         sodipodi:type="arc"
         style="fill:#ffffff"
         id="path3060-8"
         sodipodi:cx="265"
         sodipodi:cy="377.36218"
         sodipodi:rx="15"
         sodipodi:ry="15"
         d="m 280,377.36218 c 0,8.28427 -6.71573,15 -15,15 -8.28427,0 -15,-6.71573 -15,-15 0,-8.28427 6.71573,-15 15,-15 8.28427,0 15,6.71573 15,15 z"
         transform="translate(-534.23539,-133.8479)" /><path
         d="m 280,377.36218 c 0,8.28427 -6.71573,15 -15,15 -8.28427,0 -15,-6.71573 -15,-15 0,-8.28427 6.71573,-15 15,-15 8.28427,0 15,6.71573 15,15 z"
         sodipodi:ry="15"
         sodipodi:rx="15"
         sodipodi:cy="377.36218"
         sodipodi:cx="265"
         id="path3062-8"
         style="fill:#ffffff"
         sodipodi:type="arc"
         transform="translate(-489.94968,-133.8479)" /><path
         d="m 280,377.36218 c 0,8.28427 -6.71573,15 -15,15 -8.28427,0 -15,-6.71573 -15,-15 0,-8.28427 6.71573,-15 15,-15 8.28427,0 15,6.71573 15,15 z"
         sodipodi:ry="15"
         sodipodi:rx="15"
         sodipodi:cy="377.36218"
         sodipodi:cx="265"
         id="path3066-9"
         style="fill:#ffffff"
         sodipodi:type="arc"
         transform="translate(-537.09253,-175.99076)" /><path
         sodipodi:type="arc"
         style="fill:#ffffff"
         id="path3068-1"
         sodipodi:cx="265"
         sodipodi:cy="377.36218"
         sodipodi:rx="15"
         sodipodi:ry="15"
         d="m 280,377.36218 c 0,8.28427 -6.71573,15 -15,15 -8.28427,0 -15,-6.71573 -15,-15 0,-8.28427 6.71573,-15 15,-15 8.28427,0 15,6.71573 15,15 z"
         transform="translate(-489.94968,-177.41933)" /></g></g></svg>